<?xml version="1.0" encoding="utf-8"?>
<!-- Generator: Adobe Illustrator 18.1.1, SVG Export Plug-In . SVG Version: 6.00 Build 0)  -->
<svg version="1.1" id="Layer_1" xmlns="http://www.w3.org/2000/svg" xmlns:xlink="http://www.w3.org/1999/xlink" x="0px" y="0px"
	 viewBox="4 302 1000 520" enable-background="new 4 302 1000 520" xml:space="preserve">
<g id="shadows">
	<path d="M297.3,362.9l-24.6-15.5l-61.5,28.9l-28.1,66c0,0,6.1,24.9,22.2,35.6c16,10.7,37.2,21.4,37.2,21.4l-46.8,33.4l10.7,44.4
		c0,0,29.4,9.6,61-4.5c31.6-14.2,46.3-24.1,57-47.3c10.7-23.3-22.2-117.6-22.2-117.6L297.3,362.9z"/>
	<path d="M438.5,438.8c0,0,4.8-2.7-12-11.2c-13.4-5.9-32.6-6.1-40.9,0s-16.8,19.3-15.2,36.1c1.9,16.8-37.4-55.3-37.4-55.3l70.9-45.5
		l58.3,64.7l27.5,23.5c0,0,25.1,25.7-6.1,58.3s-51.6,46.8-97.1,45.2c-45.5-1.6-77.3-55.3-77.3-55.3l123.5-30.2L438.5,438.8z"/>
	<path d="M514.7,339.7h-38.8l4,211l80.2-0.8c0,0,42-2.9,68.2-36.4c26.2-33.4-28.9-30.7-36.1-30.7c-7.2,0-62.3,12.6-66-8.8
		c-3.5-21.4,4.5-89,9.9-82.9c5.3,6.1,16.8,10.7,28.6,22.2c12.8,7.5,16.6,12,16,25.9s-14.2,25.1-14.2,25.1l36.6-14.4l6.1-72.2
		l-42-22.2L514.7,339.7z"/>
	<path d="M670.6,399.5l-67.6,135.6l81,15.5l5.3-41.2l8,6.7l17.9,4.8l-5.3,33.7l64.2,7.8l17.9-32.1l-5.3-139l-58.8-14.2l-5.3,16.8
		c0,0-12.6,10.7,0,17.9c13.6,2.1,14.2,7.5,14.7,13.1c0.5,5.9-5.9,31-5.9,31l-50,2.7L670.6,399.5z"/>
	<path d="M847,444.5l-31.8,24.6c0,0-15,17.9-5.9,30.2c9.1,12.6,28.9,29.1,43.6,21.9c14.4-7.5,25.4-21.9,25.4-21.9s17.9-21.9,0-28.1
		C860.1,459.7,847,444.5,847,444.5z"/>
	<polygon points="103.7,549.5 49.5,723.9 155.1,753.8 171.7,714.2 144.1,657.6 171.7,558.1 131.5,549.5 	"/>
	<polygon points="179.1,657.6 151.1,761.3 234,785.4 259.9,681.1 288.2,594.7 246.5,580.3 	"/>
	<path d="M330.2,596.6l-86.9,74.1c0,0-4,62,16.3,83.2c20.3,21.1,46.3,46,89,38.8c42.8-7.2,64.2-31.3,64.2-31.3l-26.7-31.6
		l-69.5-10.2l-22.2-24.3l17.4-9.1c0,0,4.8-26.2,28.9-28.3c24.1-2.1,35.6,13.1,35.6,13.1l31.3-54l-34-20.3H330.2L330.2,596.6z"/>
	<polygon points="455.1,587.5 488.8,587.5 479.9,793.9 405.1,793.9 410.4,587.5 	"/>
	<path d="M525.4,683c9.1,1.1,8-10.2,21.4-17.6c13.4-7.5,28.1-5.6,37.4,0c5.3,4.3,9.9,12.3,9.9,17.6c1.3,16.6-7.2,28.6-7.2,28.6h27.5
		l13.9-79.4l-72.7-20.6l-42.8,25.9L476.5,683l5.3,66c0,0,29.1,46.3,82.6,44.9c53.5-1.3,78.3-40.1,78.3-40.1s21.4-29.4,17.4-58.6
		c-4-29.1-57.5,41.2-57.5,41.2l-82.9-6.7C520,729.8,516.3,681.6,525.4,683z"/>
	<path d="M652.9,587.5l7.5,136.4c0,0,31.6,58.8,86.1,50.8c54.3-8,63.4-27.5,84.8-65c21.4-37.4-14.7-63.4-14.7-63.4l-60.2-71.9
		l-29.1,8.3l35,137.7l-45.5-29.7L652.9,587.5z"/>
	<path d="M928.3,611.6v-11.5l3.2-9.9l-19.3-50.3l-67.6,15l-12.6,135.8l3.5,52.9c0,0,29.7,6.1,58,0c28.6-6.1,52.4-22.2,65.8-44.7
		c19.5-34.8,11.2-53.7,11.2-53.7L928.3,611.6z"/>
</g>
<g id="green">
	<g id="A1">
		<path fill="#55B848" d="M732.1,539.4l8-37.4l-29.7-7l-8,37.4l-77.3-17.1l27.3-131c1.9-9.4,29.1-52.7,80.5-52.7
			c7,0,14.2,0.8,21.7,2.4c64.4,14.7,70.3,84,69,93.8c-4.3,21.7-23.8,122.2-24.1,123.3l-0.5,2.7L732.1,539.4z M752.1,448.5
			c2.4-9.4,7.2-27.8,7.2-31.8c0.3-4.3-3.7-16-13.9-18.7c-1.6-0.5-3.2-0.5-4.5-0.5c-5.9,0-10.2,3.2-13.6,9.9
			c-2.4,4.5-5.9,24.3-7.5,34.2L752.1,448.5z"/>
		<path d="M733.1,334.3c6.7,0,13.6,0.8,20.9,2.4c62,14.2,68.4,79.9,66.8,90.9c-4.3,21.7-24.1,123-24.1,123l-61.5-13.4l8-37.4
			l-34.8-8l-8,37.4l-72.2-16c0,0,24.6-117.9,26.7-128.3C656.9,375.7,684.2,334.3,733.1,334.3 M754,451.7c0,0,7.8-29.4,8-34.8
			c0.3-5.3-4.3-18.4-16-21.4c-1.9-0.5-3.7-0.8-5.3-0.8c-8.6,0-13.4,5.9-16,11.5c-3.5,6.7-8,37.4-8,37.4L754,451.7 M733.1,329
			c-52.9,0-81.3,45.2-83.2,54.8l-26.7,128.3l-1.1,5.1l5.1,1.1l72.2,16l5.3,1.1l1.1-5.3l7-32.1l24.3,5.6l-7.2,32.6l-1.1,5.1l5.1,1.1
			l61.5,13.4l5.3,1.1l1.1-5.3c0.3-1.1,19.8-101.3,24.1-123v-0.3v-0.3c0.8-6.4-0.5-26.5-10.2-47.3c-8.6-18.2-25.9-41.7-61-49.7
			C747.8,329.8,740.4,329,733.1,329L733.1,329z M722.7,439.4c1.9-12,4.8-27.3,6.7-30.7c4-7.5,8.3-8.6,11.2-8.6c1.3,0,2.7,0.3,4,0.5
			c8.8,2.1,12.3,12.3,12,16c-0.3,2.9-3.5,17.1-6.7,28.6L722.7,439.4L722.7,439.4z"/>
	</g>
	<g id="S2">
		<path fill="#55B848" d="M884.7,726.5c-17.1,0-31.8-2.1-32.4-2.4l-2.1-0.3l-5.9-61.5l3.2,0.5c0,0,7.5,0.8,18.2,0.8
			c6.1,0,12.3-0.3,18.2-0.8c14.4-6.4,15-10.4,14.7-11.5c-0.8-4.8-16.6-9.4-24.9-10.2c-1.1,0-2.1,0-3.7,0c-12.6,0-38.8-0.3-52.1-39
			c-16-46.5,14.2-70.3,30.2-83.2c12.8-10.2,33.2-12.3,48.1-12.3c10.4,0,17.6,1.1,18.2,1.1l1.6,0.3l23.8,62.3l-5.1-1.3
			c-0.3,0-20.6-5.1-31.6-5.3h-0.5c-9.6,0-19.8,5.3-20.9,11.2c0.8,2.7,15.8,4.5,21.9,5.3c5.3,0.8,10.2,1.3,13.4,2.4l0.5,0.3
			c34.8,9.6,53.2,28.3,54.8,55.6c2.4,41.2-24.1,66-46.8,79.9C917.9,723.9,903.7,726.5,884.7,726.5z"/>
		<path d="M896.8,509.4c10.2,0,17.6,1.1,17.6,1.1l21.4,56.1c0,0-20.6-5.1-32.1-5.3c-0.3,0-0.5,0-0.5,0c-11.2,0-22.2,6.1-23.5,13.4
			c-1.1,7.5,27.3,7.8,37.4,10.7s51.3,13.4,53.5,53.5c2.1,40.1-24.1,64.4-45.5,77.5c-9.9,5.9-25.7,7.5-40.4,7.5
			c-17.1,0-31.8-2.1-31.8-2.1l-5.3-56.1c0,0,7.5,0.8,18.7,0.8c5.6,0,12-0.3,18.7-0.8c39-17.1-1.3-25.9-10.7-26.7s-39,4.3-53.5-37.4
			c-14.4-41.7,8.6-63.6,29.4-80.2C862.5,511.6,882.3,509.4,896.8,509.4 M896.8,504.1c-15.2,0-36.4,2.1-49.7,12.8
			c-16.8,13.4-47.9,38-31,86.1c14.2,40.6,42.5,40.9,54.5,40.9c1.3,0,2.7,0,3.5,0c8.8,0.8,21.1,5.1,22.5,7.8
			c-0.3,0.5-1.9,3.7-12.8,8.3c-5.6,0.5-11.5,0.8-17.4,0.8c-10.7,0-17.9-0.8-17.9-0.8l-6.7-0.8l0.5,6.7l5.3,56.1l0.3,4.3l4,0.5
			c0.5,0,15.5,2.4,32.6,2.4c19.5,0,34-2.9,43-8.3c23.3-14.2,50.3-40.1,48.1-82.4c-1.6-28.6-20.6-48.1-56.7-58l-0.5-0.3
			c-3.5-1.1-8.6-1.6-13.9-2.4c-5.6-0.8-15.5-2.1-19.3-3.7c2.1-3.5,9.1-7.5,17.6-7.5h0.5c10.7,0.3,30.7,5.1,31,5.1l9.9,2.4l-3.7-9.6
			l-21.4-56.1l-1.1-2.9l-3.2-0.5C915,505.2,907.2,504.1,896.8,504.1L896.8,504.1z"/>
	</g>
	<g id="U1">
		<path fill="#55B848" d="M753.5,755.4c-46.8,0-82.6-44.9-87.7-67.9c-5.9-25.7-21.1-103.5-21.4-104.3l-0.5-2.4l71.9-17.4l0.5,2.7
			c7.2,33.7,21.9,100,26.5,109.1c4.5,9.1,8,12.6,12,12.6l0,0c1.1,0,2.1-0.3,3.5-0.5c7.8-2.4,10.4-7.2,8.8-15.5
			c-2.1-10.4-26.5-113.9-26.7-115l-0.5-2.7l72.2-17.4l0.5,2.7c0.3,0.8,20.1,88.5,24.1,109.6c4,21.4,1.6,81.3-58,101.9
			C770.6,753.8,762,755.4,753.5,755.4C753.7,755.4,753.7,755.4,753.5,755.4z"/>
		<path d="M810.1,539.9c0,0,20.1,88.2,24.1,109.6c4,21.4,1.1,79.1-56.1,98.9c-8.3,2.9-16.6,4.3-24.3,4.3
			c-45.7,0-80.2-43.6-85.3-65.8C662.6,661,647,582.7,647,582.7l66.8-16c0,0,20.9,98.1,26.7,109.6c4.8,9.4,8.6,14.2,14.4,14.2
			c1.3,0,2.7-0.3,4.3-0.8c8.3-2.4,12.8-8.3,10.7-18.7c-2.1-10.4-26.7-115-26.7-115L810.1,539.9 M814.2,533.5l-5.3,1.3l-66.8,16
			l-5.1,1.3l1.3,5.1c0.3,1.1,24.6,104.5,26.7,114.7c1.3,7.2-0.5,10.7-7,12.6c-1.1,0.3-1.9,0.5-2.7,0.5c-2.4,0-5.1-1.9-9.6-11.2
			c-4-8-17.9-69.2-26.2-108.3l-1.1-5.3l-5.3,1.3l-66.8,16l-5.1,1.1l1.1,5.1c0.3,0.8,15.8,78.9,21.4,104.5
			c2.9,13.4,14.4,30.5,28.9,43.8c13.1,11.8,34.2,25.9,61.5,25.9c8.8,0,17.6-1.6,26.2-4.5c61.2-21.4,63.9-82.9,59.6-105.1
			c-4-21.4-23.3-106.1-24.1-109.9L814.2,533.5L814.2,533.5z"/>
	</g>
	<g id="O2">
		<path fill="#55B848" d="M570.8,769.6c-53.7,0-97.6-43.8-97.6-97.6s43.8-97.6,97.6-97.6s97.6,43.8,97.6,97.6
			S624.6,769.6,570.8,769.6z M570,637.2c-19.3,0-34.8,15.5-34.8,34.8s15.5,34.8,34.8,34.8s34.8-15.5,34.8-34.8S589,637.2,570,637.2z
			"/>
		<path d="M570.8,577.1c52.4,0,94.9,42.5,94.9,94.9s-42.5,94.9-94.9,94.9s-94.9-42.5-94.9-94.9S518.4,577.1,570.8,577.1 M570,709.4
			c20.6,0,37.4-16.8,37.4-37.4c0-20.6-16.8-37.4-37.4-37.4c-20.6,0-37.4,16.8-37.4,37.4C532.6,692.6,549.2,709.4,570,709.4
			 M570.8,571.7c-55.3,0-100.3,44.9-100.3,100.3c0,55.3,44.9,100.3,100.3,100.3c55.3,0,100.3-45.2,100.3-100.3
			C671.1,616.9,626.2,571.7,570.8,571.7L570.8,571.7z M570,704.1c-17.6,0-32.1-14.4-32.1-32.1c0-17.6,14.4-32.1,32.1-32.1
			c17.6,0,32.1,14.4,32.1,32.1C602.1,689.6,587.7,704.1,570,704.1L570,704.1z"/>
	</g>
	<g id="I2">
		<polygon fill="#55B848" points="401.1,769.9 401.1,577.3 475.9,577.3 470.6,769.9 		"/>
		<path d="M473.3,580l-5.3,187.2h-64.2V580H473.3 M478.9,574.7h-5.6h-69.5h-5.3v5.3v187.2v5.3h5.3h64.2h5.1l0.3-5.1l5.3-187.2
			L478.9,574.7L478.9,574.7z"/>
	</g>
	<g id="C1">
		<path fill="#55B848" d="M343,771.7c-56.4,0-102.1-45.2-102.1-101.1c0-55.9,45.7-101.1,102.1-101.1c17.6,0,35,4.5,50.3,13.1
			l2.1,1.3l-29.7,56.7l-2.4-1.6c-5.6-3.5-12-5.3-18.7-5.3c-19.3,0-34.8,15.5-34.8,34.2c0,19,15.5,34.2,34.8,34.2
			c8.6,0,16.8-3.2,23.3-8.8l2.4-2.1l38.2,56.7l-1.9,1.6C388.5,764,366.3,771.7,343,771.7z"/>
		<path d="M343,572.5c17.9,0,34.5,4.5,48.9,12.8l-27,51.9c-5.9-3.7-12.8-5.9-20.3-5.9c-20.6,0-37.4,16.6-37.4,36.9
			s16.8,36.9,37.4,36.9c9.6,0,18.4-3.7,25.1-9.6l35.3,52.1c-17.1,13.4-38.5,21.4-62,21.4c-55.1,0-99.5-44.1-99.5-98.4
			S288,572.5,343,572.5 M343,567.2c-57.8,0-104.8,46.5-104.8,103.7c0,57.2,47.1,103.7,104.8,103.7c24.1,0,46.5-7.8,65.2-22.7l4-3.2
			l-2.7-4l-35.3-52.1l-3.5-5.1l-4.5,4c-5.9,5.3-13.6,8.3-21.7,8.3c-17.6,0-32.1-14.2-32.1-31.6s14.4-31.6,32.1-31.6
			c6.1,0,12,1.9,17.4,5.1l4.8,3.2l2.7-5.1l27-51.9l2.4-4.5l-4.5-2.4C378.9,571.7,361,567.2,343,567.2L343,567.2z"/>
	</g>
	<g id="I1">
		<polygon fill="#55B848" points="151.9,739.6 198.7,558.1 270.6,578.1 218.4,757 		"/>
		<path d="M200.5,561.3l66.8,18.7l-50.8,173.8l-61.5-16L200.5,561.3 M196.8,554.6l-1.3,5.3L150,736.4l-1.3,5.1l5.1,1.3l61.5,16
			l5.1,1.3l1.3-5.1l50.8-173.8l1.6-5.1l-5.1-1.3l-66.8-18.7L196.8,554.6L196.8,554.6z"/>
	</g>
	<g id="L1">
		<polygon fill="#55B848" points="31.3,696.9 89.3,518 155.9,538 121.1,647.7 182.3,666.4 162.3,733 		"/>
		<path d="M90.9,521.2l61.5,18.7l-34.8,109.6l61.5,18.7l-18.7,61.5L34.8,695L90.9,521.2 M87.4,514.5l-1.6,5.1L29.7,693.4l-1.6,5.3
			l5.3,1.6l125.7,34.8l5.1,1.3l1.6-5.1l18.7-61.5l1.6-5.1l-5.1-1.6l-56.4-17.1l33.2-104.5l1.6-5.1l-5.1-1.6l-61.5-18.7L87.4,514.5
			L87.4,514.5z"/>
	</g>
	<g id="_x2E_1">
		<path fill="#55B848" d="M854.3,501.9c-18.2,0-32.9-14.7-32.9-32.9c0-18.2,14.7-32.9,32.9-32.9s32.9,14.7,32.9,32.9
			C887.1,487.2,872.4,501.9,854.3,501.9z"/>
		<path d="M854.3,438.8c16.8,0,30.2,13.6,30.2,30.2s-13.6,30.2-30.2,30.2S824,485.6,824,469.1C824,452.5,837.4,438.8,854.3,438.8
			 M854.3,433.5c-19.8,0-35.6,16-35.6,35.6c0,19.8,16,35.6,35.6,35.6s35.6-16,35.6-35.6C889.8,449.3,874,433.5,854.3,433.5
			L854.3,433.5z"/>
	</g>
	<g id="D1">
		<path fill="#55B848" d="M492,328.7h85.6c49.2,0,85.3,59.1,85.6,98.9c0.3,22.7-12.3,50-31.8,69.5c-17.1,17.1-38,26.7-58.8,26.7h-4
			c-47.1,0-67.9,2.7-68.2,2.7l-2.9,0.3L492,328.7z M563.9,456.5c3.5-0.8,9.4-2.9,15.2-6.4c11.5-7.2,17.4-17.4,17.1-30.2
			s-7-22.2-19.8-27.5c-6.7-2.9-13.6-4-17.4-4.3L563.9,456.5z"/>
		<path d="M577.5,331.4c47.6,0,82.6,58,82.9,96.3c0.3,38.2-37.7,93.6-88,93.6c0,0,0,0-0.3,0c-1.3,0-2.4,0-3.7,0
			c-47.9,0-68.4,2.7-68.4,2.7l-5.3-192.5C494.6,331.4,529.9,331.4,577.5,331.4 M561.5,459.7c0,0,38-6.4,37.4-40.1
			c-0.5-33.7-42.8-34.8-42.8-34.8L561.5,459.7 M577.5,326h-82.9H489l0.3,5.6l5.3,192.5l0.3,5.9l5.9-0.8c0.3,0,21.1-2.7,67.9-2.7h3.7
			h0.3c21.7,0,43-9.9,60.7-27.5c20.1-20.1,32.6-48.1,32.6-71.4C665.5,386.7,628.3,326,577.5,326L577.5,326z M566.3,453l-4.5-62
			c10.4,1.6,31.3,7.5,31.6,28.9c0.3,12-5.3,21.4-16,28.1C573.5,450.3,569.5,451.9,566.3,453L566.3,453z"/>
	</g>
	<g id="O1">
		<path fill="#55B848" d="M397.1,527.9c-53.7,0-97.6-43.8-97.6-97.6s43.8-97.6,97.6-97.6s97.6,43.8,97.6,97.6
			S450.8,527.9,397.1,527.9z M396.2,395.5c-19.3,0-34.8,15.5-34.8,34.8c0,19.3,15.5,34.8,34.8,34.8s34.8-15.5,34.8-34.8
			C431,411,415.2,395.5,396.2,395.5z"/>
		<path d="M397.1,335.4c52.4,0,94.9,42.5,94.9,94.9s-42.5,94.9-94.9,94.9s-94.9-42.5-94.9-94.9S344.6,335.4,397.1,335.4
			 M396.2,467.7c20.6,0,37.4-16.8,37.4-37.4s-16.8-37.4-37.4-37.4c-20.6,0-37.4,16.8-37.4,37.4S375.4,467.7,396.2,467.7 M397.1,330
			c-55.3,0-100.3,44.9-100.3,100.3s44.9,100.3,100.3,100.3s100.3-44.9,100.3-100.3S452.4,330,397.1,330L397.1,330z M396.2,462.4
			c-17.6,0-32.1-14.4-32.1-32.1c0-17.6,14.4-32.1,32.1-32.1s32.1,14.4,32.1,32.1C428.3,447.9,413.9,462.4,396.2,462.4L396.2,462.4z"
			/>
	</g>
	<g id="S1">
		<path fill="#55B848" d="M223.8,552.2c-13.6,0-23.3-1.6-23.8-1.6l-1.6-0.3l-20.9-65.2l4.8,1.6c0.3,0,22.7,7.2,40.4,7.2l0,0
			c6.7,0,15-1.1,18.2-5.9c1.6-2.4,1.9-4.8,1.1-7c-4-10.4-31.3-18.7-47.6-23.8c-11.5-3.5-20.6-12.3-26.2-24.9
			c-7.5-17.6-6.4-39.8,3.2-59.1c6.4-12.8,25.7-27.3,43.8-32.9c10.4-2.1,19-3.2,26.7-3.2c15,0,23.3,4,29.9,7.2l2.9,1.3l8.8,56.7
			l-4.3-1.3c0,0-12.3-4.3-22.7-4.3c-5.6,0-9.6,1.1-12,3.5c-1.9,2.1-2.7,3.7-2.4,5.3c0.5,2.1,3.5,5.3,14.7,9.1c0.8,0.3,2.4,0.5,4,1.1
			c15.5,3.7,62.8,14.7,51.1,79.4C303.7,544.7,253.2,552.2,223.8,552.2z"/>
		<path d="M242.2,339.7c15.8,0,23.5,4.5,30.5,7.8c1.3,8.8,8,50.8,8,50.8s-12.6-4.3-23.5-4.3c-5.6,0-10.7,1.1-13.9,4.3
			c-9.4,9.9,3.7,15.5,13.4,18.7c9.6,3.2,66,8,53.5,77.5c-8.6,47.6-56.7,55.1-86.4,55.1c-13.6,0-23.3-1.6-23.3-1.6l-18.7-58.8
			c0,0,23,7.2,41.2,7.2c9.1,0,17.1-1.9,20.3-7.2c10.2-16.3-22.2-26.7-48.1-34.8s-38.5-45.7-21.4-80.2c5.6-11.5,23.8-25.9,42.2-31.6
			C226.7,340.5,235.3,339.7,242.2,339.7 M242.2,334.3L242.2,334.3c-8,0-16.8,1.1-27,3.2H215h-0.3c-19,5.6-38.8,20.9-45.5,34.2
			c-9.9,20.1-11,42.8-3.2,61.2c5.9,13.4,15.5,22.7,27.8,26.5c14.7,4.5,42.5,12.8,46,22.2c0.3,1.1,0.5,2.4-0.8,4.8
			c-1.9,2.9-7.5,4.8-15.8,4.8c-17.1,0-39.3-7-39.6-7l-9.9-3.2l3.2,9.9l18.7,58.8l1.1,3.2l3.2,0.5c0.5,0,10.2,1.6,24.3,1.6
			c70.3,0,87.4-37.2,91.4-59.4c12-67.4-36.9-78.9-53.2-82.6c-1.6-0.3-3.2-0.8-4-1.1c-11.8-4-12.8-6.7-12.8-7.2
			c0-0.3,0.3-1.3,1.6-2.9c1.6-1.6,5.1-2.7,9.9-2.7c10.2,0,21.7,4,21.9,4l8.6,2.9l-1.3-8.8l-8-50.8l-0.5-2.7l-2.4-1.3
			c-0.5-0.3-1.1-0.5-1.9-0.8C266.3,338.3,257.7,334.3,242.2,334.3L242.2,334.3z"/>
	</g>
</g>
</svg>
